<svg width="80" height="24" viewBox="0 0 80 24" fill="none" xmlns="http://www.w3.org/2000/svg">
<g opacity="0.8">
<path d="M29.6422 19.9921C29.8061 19.9921 29.922 19.9758 29.99 19.9433C30.058 19.9108 30.0919 19.8478 30.0919 19.7543C30.0919 19.6811 30.048 19.6181 29.96 19.5653C29.8721 19.5084 29.7381 19.4454 29.5582 19.3763C29.4183 19.3234 29.2904 19.2685 29.1744 19.2116C29.0625 19.1547 28.9666 19.0877 28.8866 19.0104C28.8066 18.9291 28.7447 18.8336 28.7007 18.7239C28.6567 18.6141 28.6347 18.482 28.6347 18.3276C28.6347 18.0268 28.7447 17.789 28.9646 17.6142C29.1844 17.4394 29.4863 17.352 29.8701 17.352C30.0619 17.352 30.2458 17.3703 30.4218 17.4069C30.5977 17.4394 30.7376 17.476 30.8415 17.5166L30.6856 18.2239C30.5817 18.1873 30.4677 18.1548 30.3438 18.1263C30.2239 18.0979 30.0879 18.0837 29.936 18.0837C29.6562 18.0837 29.5162 18.1629 29.5162 18.3215C29.5162 18.358 29.5222 18.3906 29.5342 18.419C29.5462 18.4475 29.5702 18.4759 29.6062 18.5044C29.6422 18.5288 29.6902 18.5572 29.7501 18.5897C29.8141 18.6182 29.894 18.6507 29.99 18.6873C30.1859 18.7605 30.3478 18.8336 30.4757 18.9068C30.6037 18.9759 30.7036 19.0531 30.7756 19.1385C30.8515 19.2198 30.9035 19.3112 30.9315 19.4128C30.9635 19.5145 30.9794 19.6323 30.9794 19.7665C30.9794 20.0835 30.8615 20.3234 30.6256 20.4859C30.3938 20.6485 30.0639 20.7298 29.6362 20.7298C29.3563 20.7298 29.1225 20.7054 28.9346 20.6567C28.7507 20.6079 28.6227 20.5672 28.5508 20.5347L28.7007 19.797C28.8526 19.8579 29.0085 19.9067 29.1684 19.9433C29.3284 19.9758 29.4863 19.9921 29.6422 19.9921Z" fill="white"/>
<path d="M34.5376 19.0348C34.5376 19.2868 34.5016 19.5185 34.4297 19.7299C34.3577 19.9372 34.2537 20.1161 34.1178 20.2664C33.9819 20.4128 33.818 20.5266 33.6261 20.6079C33.4382 20.6892 33.2263 20.7298 32.9904 20.7298C32.7586 20.7298 32.5467 20.6892 32.3548 20.6079C32.1669 20.5266 32.005 20.4128 31.8691 20.2664C31.7331 20.1161 31.6272 19.9372 31.5512 19.7299C31.4753 19.5185 31.4373 19.2868 31.4373 19.0348C31.4373 18.7828 31.4753 18.5532 31.5512 18.3458C31.6312 18.1385 31.7391 17.9617 31.8751 17.8154C32.015 17.6691 32.1789 17.5553 32.3668 17.474C32.5587 17.3927 32.7666 17.352 32.9904 17.352C33.2183 17.352 33.4262 17.3927 33.6141 17.474C33.806 17.5553 33.9699 17.6691 34.1058 17.8154C34.2418 17.9617 34.3477 18.1385 34.4237 18.3458C34.4996 18.5532 34.5376 18.7828 34.5376 19.0348ZM33.6261 19.0348C33.6261 18.7544 33.5701 18.5349 33.4582 18.3763C33.3502 18.2137 33.1943 18.1324 32.9904 18.1324C32.7866 18.1324 32.6286 18.2137 32.5167 18.3763C32.4048 18.5349 32.3488 18.7544 32.3488 19.0348C32.3488 19.3153 32.4048 19.5389 32.5167 19.7055C32.6286 19.8681 32.7866 19.9494 32.9904 19.9494C33.1943 19.9494 33.3502 19.8681 33.4582 19.7055C33.5701 19.5389 33.6261 19.3153 33.6261 19.0348Z" fill="white"/>
<path d="M36.537 15.9131C36.7049 15.9131 36.8588 15.9314 36.9988 15.968C37.1387 16.0005 37.2466 16.033 37.3226 16.0655L37.1487 16.7911C37.0687 16.7545 36.9808 16.7281 36.8848 16.7118C36.7929 16.6915 36.7069 16.6813 36.627 16.6813C36.519 16.6813 36.4271 16.6976 36.3511 16.7301C36.2792 16.7586 36.2212 16.7992 36.1772 16.852C36.1372 16.9049 36.1073 16.9679 36.0873 17.0411C36.0713 17.1142 36.0633 17.1935 36.0633 17.2788V17.4374H37.1667V18.1934H36.0633V20.6445H35.1698V17.2667C35.1698 16.852 35.2837 16.5228 35.5116 16.2789C35.7435 16.035 36.0853 15.9131 36.537 15.9131Z" fill="white"/>
<path d="M37.6097 16.6386L38.5032 16.4923V17.4374H39.5766V18.1934H38.5032V19.3214C38.5032 19.5124 38.5352 19.6649 38.5991 19.7787C38.6671 19.8925 38.801 19.9494 39.0009 19.9494C39.0969 19.9494 39.1948 19.9413 39.2948 19.925C39.3987 19.9047 39.4926 19.8783 39.5766 19.8457L39.7025 20.553C39.5946 20.5977 39.4747 20.6363 39.3427 20.6689C39.2108 20.7014 39.0489 20.7176 38.857 20.7176C38.6131 20.7176 38.4112 20.6851 38.2513 20.6201C38.0914 20.551 37.9635 20.4575 37.8675 20.3396C37.7716 20.2177 37.7036 20.0713 37.6637 19.9006C37.6277 19.7299 37.6097 19.5409 37.6097 19.3336V16.6386Z" fill="white"/>
<path d="M42.2217 18.8031C42.1418 19.1121 42.0558 19.4189 41.9639 19.7238C41.8759 20.0287 41.782 20.3355 41.682 20.6445H40.9864C40.9145 20.4738 40.8365 20.2705 40.7526 20.0348C40.6686 19.799 40.5807 19.5429 40.4887 19.2665C40.4008 18.986 40.3088 18.6914 40.2129 18.3824C40.1209 18.0694 40.031 17.7544 39.943 17.4374H40.8845C40.9165 17.5837 40.9504 17.7443 40.9864 17.919C41.0264 18.0898 41.0664 18.2666 41.1064 18.4495C41.1503 18.6324 41.1943 18.8174 41.2383 19.0043C41.2863 19.1873 41.3342 19.3641 41.3822 19.5348C41.4342 19.3559 41.4842 19.173 41.5321 18.986C41.5841 18.7991 41.6321 18.6162 41.6761 18.4373C41.724 18.2544 41.768 18.0796 41.808 17.9129C41.852 17.7422 41.8899 17.5837 41.9219 17.4374H42.5696C42.6015 17.5837 42.6375 17.7422 42.6775 17.9129C42.7175 18.0796 42.7595 18.2544 42.8034 18.4373C42.8474 18.6162 42.8934 18.7991 42.9414 18.986C42.9893 19.173 43.0393 19.3559 43.0913 19.5348C43.1392 19.3641 43.1872 19.1873 43.2352 19.0043C43.2832 18.8174 43.3271 18.6324 43.3671 18.4495C43.4111 18.2666 43.4511 18.0898 43.4871 17.919C43.527 17.7443 43.563 17.5837 43.595 17.4374H44.5245C44.4365 17.7544 44.3446 18.0694 44.2486 18.3824C44.1567 18.6914 44.0647 18.986 43.9728 19.2665C43.8848 19.5429 43.7969 19.799 43.7089 20.0348C43.625 20.2705 43.547 20.4738 43.4751 20.6445H42.7794C42.6795 20.3355 42.5816 20.0287 42.4856 19.7238C42.3897 19.4189 42.3017 19.1121 42.2217 18.8031Z" fill="white"/>
<path d="M46.0921 20.0104C46.1801 20.0104 46.264 20.0083 46.344 20.0043C46.4239 20.0002 46.4879 19.9941 46.5359 19.986V19.297C46.4999 19.2889 46.4459 19.2807 46.3739 19.2726C46.302 19.2645 46.236 19.2604 46.1761 19.2604C46.0921 19.2604 46.0121 19.2665 45.9362 19.2787C45.8642 19.2868 45.8003 19.3051 45.7443 19.3336C45.6883 19.362 45.6443 19.4007 45.6124 19.4494C45.5804 19.4982 45.5644 19.5592 45.5644 19.6323C45.5644 19.7746 45.6104 19.8742 45.7023 19.9311C45.7983 19.9839 45.9282 20.0104 46.0921 20.0104ZM46.0201 17.352C46.284 17.352 46.5039 17.3825 46.6798 17.4435C46.8557 17.5044 46.9956 17.5918 47.0995 17.7056C47.2075 17.8195 47.2834 17.9577 47.3274 18.1203C47.3714 18.2828 47.3934 18.4637 47.3934 18.6629V20.553C47.2655 20.5815 47.0876 20.614 46.8597 20.6506C46.6318 20.6912 46.356 20.7115 46.0321 20.7115C45.8282 20.7115 45.6423 20.6932 45.4744 20.6567C45.3105 20.6201 45.1686 20.5611 45.0487 20.4798C44.9287 20.3945 44.8368 20.2847 44.7728 20.1506C44.7089 20.0165 44.6769 19.8518 44.6769 19.6567C44.6769 19.4698 44.7129 19.3112 44.7848 19.1812C44.8608 19.0511 44.9607 18.9474 45.0847 18.8702C45.2086 18.793 45.3505 18.7381 45.5104 18.7056C45.6703 18.669 45.8362 18.6507 46.0081 18.6507C46.1241 18.6507 46.226 18.6568 46.314 18.669C46.4059 18.6771 46.4799 18.6893 46.5359 18.7056V18.6202C46.5359 18.4658 46.4899 18.3418 46.3979 18.2483C46.306 18.1548 46.1461 18.1081 45.9182 18.1081C45.7663 18.1081 45.6164 18.1203 45.4684 18.1446C45.3205 18.165 45.1926 18.1955 45.0847 18.2361L44.9707 17.5044C45.0227 17.4882 45.0867 17.4719 45.1626 17.4557C45.2426 17.4353 45.3285 17.4191 45.4205 17.4069C45.5124 17.3906 45.6084 17.3784 45.7083 17.3703C45.8123 17.3581 45.9162 17.352 46.0201 17.352Z" fill="white"/>
<path d="M50.0423 18.2422C49.9624 18.2219 49.8684 18.2015 49.7605 18.1812C49.6525 18.1568 49.5366 18.1446 49.4127 18.1446C49.3567 18.1446 49.2887 18.1507 49.2088 18.1629C49.1328 18.1711 49.0749 18.1812 49.0349 18.1934V20.6445H48.1414V17.6081C48.3013 17.5512 48.4892 17.4983 48.7051 17.4496C48.9249 17.3967 49.1688 17.3703 49.4367 17.3703C49.4846 17.3703 49.5426 17.3744 49.6106 17.3825C49.6785 17.3866 49.7465 17.3947 49.8145 17.4069C49.8824 17.415 49.9504 17.4272 50.0183 17.4435C50.0863 17.4557 50.1443 17.4719 50.1922 17.4922L50.0423 18.2422Z" fill="white"/>
<path d="M50.4028 19.0653C50.4028 18.7808 50.4448 18.5328 50.5287 18.3215C50.6167 18.106 50.7306 17.9272 50.8705 17.7849C51.0105 17.6426 51.1704 17.5349 51.3503 17.4618C51.5342 17.3886 51.7221 17.352 51.914 17.352C52.3617 17.352 52.7155 17.4922 52.9754 17.7727C53.2352 18.0491 53.3652 18.4576 53.3652 18.9982C53.3652 19.0511 53.3632 19.11 53.3592 19.1751C53.3552 19.236 53.3512 19.2909 53.3472 19.3397H51.3203C51.3403 19.5267 51.4262 19.675 51.5781 19.7848C51.7301 19.8945 51.9339 19.9494 52.1898 19.9494C52.3537 19.9494 52.5136 19.9352 52.6695 19.9067C52.8295 19.8742 52.9594 19.8356 53.0593 19.7909L53.1793 20.5286C53.1313 20.553 53.0673 20.5774 52.9874 20.6018C52.9074 20.6262 52.8175 20.6465 52.7175 20.6628C52.6216 20.6831 52.5176 20.6993 52.4057 20.7115C52.2937 20.7237 52.1818 20.7298 52.0699 20.7298C51.786 20.7298 51.5382 20.6872 51.3263 20.6018C51.1184 20.5164 50.9445 20.4006 50.8046 20.2543C50.6686 20.1039 50.5667 19.927 50.4987 19.7238C50.4348 19.5206 50.4028 19.3011 50.4028 19.0653ZM52.5016 18.7178C52.4976 18.6405 52.4836 18.5653 52.4597 18.4922C52.4397 18.419 52.4057 18.354 52.3577 18.2971C52.3137 18.2402 52.2558 18.1934 52.1838 18.1568C52.1158 18.1203 52.0299 18.102 51.926 18.102C51.826 18.102 51.7401 18.1203 51.6681 18.1568C51.5961 18.1894 51.5362 18.2341 51.4882 18.291C51.4402 18.3479 51.4022 18.4149 51.3743 18.4922C51.3503 18.5653 51.3323 18.6405 51.3203 18.7178H52.5016Z" fill="white"/>
</g>
<path d="M33.2662 10.7552C33.2662 9.388 32.7718 8.70441 31.783 8.70441C31.5684 8.70441 31.3539 8.73289 31.1393 8.78986C30.9341 8.84682 30.7662 8.91803 30.6356 9.00348V12.8629C30.7382 12.8819 30.8688 12.9009 31.0274 12.9199C31.186 12.9294 31.3585 12.9341 31.5451 12.9341C32.1141 12.9341 32.5432 12.7348 32.8324 12.336C33.1216 11.9372 33.2662 11.4103 33.2662 10.7552ZM35.393 10.8121C35.393 11.4103 35.3044 11.9515 35.1271 12.4357C34.9592 12.9199 34.712 13.3329 34.3855 13.6747C34.059 14.0165 33.6579 14.2823 33.1822 14.4722C32.7065 14.6526 32.1654 14.7428 31.5591 14.7428C31.3072 14.7428 31.0414 14.7286 30.7615 14.7001C30.491 14.6811 30.2205 14.6526 29.95 14.6146C29.6888 14.5767 29.437 14.5339 29.1944 14.4865C28.9519 14.4295 28.7373 14.3725 28.5508 14.3156V3.84806L30.6356 3.50627V7.23754C30.8688 7.1331 31.1114 7.0524 31.3632 6.99543C31.6151 6.93846 31.8856 6.90998 32.1748 6.90998C32.6971 6.90998 33.1589 7.00492 33.56 7.19481C33.9611 7.3752 34.2969 7.6363 34.5674 7.97809C34.8379 8.31989 35.0432 8.73289 35.1831 9.2171C35.323 9.69182 35.393 10.2235 35.393 10.8121Z" fill="white"/>
<path d="M39.6678 13.0765C39.873 13.0765 40.0689 13.0718 40.2555 13.0623C40.442 13.0528 40.5913 13.0386 40.7032 13.0196V11.4103C40.6193 11.3913 40.4933 11.3723 40.3254 11.3533C40.1575 11.3343 40.0036 11.3248 39.8637 11.3248C39.6678 11.3248 39.4812 11.3391 39.304 11.3676C39.1361 11.3866 38.9869 11.4293 38.8563 11.4957C38.7257 11.5622 38.6231 11.6524 38.5484 11.7663C38.4738 11.8803 38.4365 12.0227 38.4365 12.1936C38.4365 12.5259 38.5438 12.7585 38.7583 12.8914C38.9822 13.0148 39.2854 13.0765 39.6678 13.0765ZM39.4999 6.86726C40.1156 6.86726 40.6286 6.93846 41.039 7.08088C41.4495 7.22329 41.776 7.42742 42.0185 7.69326C42.2704 7.9591 42.4476 8.28191 42.5502 8.66169C42.6528 9.04146 42.7041 9.46396 42.7041 9.92918V14.344C42.4056 14.4105 41.9905 14.4865 41.4588 14.5719C40.9271 14.6668 40.2835 14.7143 39.5279 14.7143C39.0521 14.7143 38.6184 14.6716 38.2266 14.5861C37.8442 14.5007 37.513 14.363 37.2332 14.1731C36.9533 13.9738 36.7388 13.7174 36.5895 13.4041C36.4403 13.0908 36.3656 12.7063 36.3656 12.2505C36.3656 11.8138 36.4496 11.4435 36.6175 11.1397C36.7947 10.8359 37.0279 10.5938 37.3171 10.4134C37.6063 10.233 37.9374 10.1048 38.3106 10.0289C38.6837 9.94342 39.0708 9.90069 39.4719 9.90069C39.7424 9.90069 39.9803 9.91494 40.1855 9.94342C40.4001 9.96241 40.5726 9.99089 40.7032 10.0289V9.82949C40.7032 9.4687 40.596 9.17913 40.3814 8.96076C40.1669 8.74239 39.7937 8.6332 39.262 8.6332C38.9076 8.6332 38.5578 8.66168 38.2126 8.71865C37.8675 8.76612 37.569 8.83733 37.3171 8.93227L37.0513 7.22329C37.1725 7.18532 37.3218 7.14734 37.499 7.10936C37.6856 7.06189 37.8861 7.02391 38.1007 6.99543C38.3152 6.95745 38.5391 6.92897 38.7723 6.90998C39.0148 6.8815 39.2574 6.86726 39.4999 6.86726Z" fill="white"/>
<path d="M46.5343 9.77252C46.7395 9.54466 46.9494 9.3073 47.1639 9.06045C47.3878 8.81359 47.6023 8.57149 47.8075 8.33413C48.0128 8.08728 48.204 7.85467 48.3812 7.6363C48.5678 7.41793 48.7264 7.22804 48.857 7.06664H51.3336C50.8392 7.64579 50.3541 8.20121 49.8784 8.73289C49.412 9.25508 48.8989 9.79626 48.3393 10.3564C48.6191 10.6128 48.9083 10.9213 49.2068 11.2821C49.5053 11.6334 49.7944 11.9989 50.0743 12.3787C50.3541 12.7585 50.6107 13.1383 50.8439 13.518C51.0771 13.8978 51.273 14.2444 51.4315 14.5577H49.0389C48.8896 14.3108 48.717 14.0402 48.5212 13.7459C48.3346 13.4421 48.134 13.143 47.9195 12.8487C47.7049 12.5449 47.4764 12.2553 47.2339 11.98C47.0007 11.7046 46.7675 11.472 46.5343 11.2821V14.5577H44.4494V3.84806L46.5343 3.50627V9.77252Z" fill="white"/>
<path d="M55.0882 13.0765C55.2934 13.0765 55.4893 13.0718 55.6759 13.0623C55.8624 13.0528 56.0117 13.0386 56.1236 13.0196V11.4103C56.0397 11.3913 55.9137 11.3723 55.7458 11.3533C55.5779 11.3343 55.424 11.3248 55.2841 11.3248C55.0882 11.3248 54.9016 11.3391 54.7244 11.3676C54.5565 11.3866 54.4072 11.4293 54.2766 11.4957C54.1461 11.5622 54.0434 11.6524 53.9688 11.7663C53.8942 11.8803 53.8569 12.0227 53.8569 12.1936C53.8569 12.5259 53.9642 12.7585 54.1787 12.8914C54.4026 13.0148 54.7057 13.0765 55.0882 13.0765ZM54.9203 6.86726C55.5359 6.86726 56.049 6.93846 56.4594 7.08088C56.8699 7.22329 57.1964 7.42742 57.4389 7.69326C57.6907 7.9591 57.868 8.28191 57.9706 8.66169C58.0732 9.04146 58.1245 9.46396 58.1245 9.92918V14.344C57.826 14.4105 57.4109 14.4865 56.8792 14.5719C56.3475 14.6668 55.7038 14.7143 54.9483 14.7143C54.4725 14.7143 54.0388 14.6716 53.647 14.5861C53.2645 14.5007 52.9334 14.363 52.6536 14.1731C52.3737 13.9738 52.1592 13.7174 52.0099 13.4041C51.8607 13.0908 51.786 12.7063 51.786 12.2505C51.786 11.8138 51.87 11.4435 52.0379 11.1397C52.2151 10.8359 52.4483 10.5938 52.7375 10.4134C53.0267 10.233 53.3578 10.1048 53.731 10.0289C54.1041 9.94342 54.4912 9.90069 54.8923 9.90069C55.1628 9.90069 55.4007 9.91494 55.6059 9.94342C55.8205 9.96241 55.993 9.99089 56.1236 10.0289V9.82949C56.1236 9.4687 56.0163 9.17913 55.8018 8.96076C55.5872 8.74239 55.2141 8.6332 54.6824 8.6332C54.328 8.6332 53.9781 8.66168 53.633 8.71865C53.2879 8.76612 52.9894 8.83733 52.7375 8.93227L52.4717 7.22329C52.5929 7.18532 52.7422 7.14734 52.9194 7.10936C53.106 7.06189 53.3065 7.02391 53.5211 6.99543C53.7356 6.95745 53.9595 6.92897 54.1927 6.90998C54.4352 6.8815 54.6778 6.86726 54.9203 6.86726Z" fill="white"/>
<path d="M62.8082 14.7001C62.2018 14.6906 61.7075 14.6241 61.325 14.5007C60.9519 14.3773 60.6534 14.2064 60.4295 13.988C60.215 13.7601 60.0657 13.4896 59.9817 13.1762C59.9071 12.8534 59.8698 12.4926 59.8698 12.0939V3.84806L61.9546 3.50627V11.6666C61.9546 11.8565 61.9686 12.0274 61.9966 12.1793C62.0246 12.3312 62.0759 12.4594 62.1505 12.5639C62.2345 12.6683 62.3511 12.7537 62.5003 12.8202C62.6496 12.8867 62.8502 12.9294 63.102 12.9484L62.8082 14.7001Z" fill="white"/>
<path d="M67.1745 13.0765C67.3797 13.0765 67.5756 13.0718 67.7622 13.0623C67.9487 13.0528 68.098 13.0386 68.2099 13.0196V11.4103C68.126 11.3913 68 11.3723 67.8321 11.3533C67.6642 11.3343 67.5103 11.3248 67.3704 11.3248C67.1745 11.3248 66.9879 11.3391 66.8107 11.3676C66.6428 11.3866 66.4935 11.4293 66.363 11.4957C66.2324 11.5622 66.1298 11.6524 66.0551 11.7663C65.9805 11.8803 65.9432 12.0227 65.9432 12.1936C65.9432 12.5259 66.0505 12.7585 66.265 12.8914C66.4889 13.0148 66.7921 13.0765 67.1745 13.0765ZM67.0066 6.86726C67.6223 6.86726 68.1353 6.93846 68.5457 7.08088C68.9562 7.22329 69.2827 7.42742 69.5252 7.69326C69.7771 7.9591 69.9543 8.28191 70.0569 8.66169C70.1595 9.04146 70.2108 9.46396 70.2108 9.92918V14.344C69.9123 14.4105 69.4972 14.4865 68.9655 14.5719C68.4338 14.6668 67.7902 14.7143 67.0346 14.7143C66.5588 14.7143 66.1251 14.6716 65.7333 14.5861C65.3509 14.5007 65.0197 14.363 64.7399 14.1731C64.46 13.9738 64.2455 13.7174 64.0962 13.4041C63.947 13.0908 63.8723 12.7063 63.8723 12.2505C63.8723 11.8138 63.9563 11.4435 64.1242 11.1397C64.3014 10.8359 64.5346 10.5938 64.8238 10.4134C65.113 10.233 65.4441 10.1048 65.8173 10.0289C66.1904 9.94342 66.5775 9.90069 66.9786 9.90069C67.2491 9.90069 67.487 9.91494 67.6922 9.94342C67.9068 9.96241 68.0793 9.99089 68.2099 10.0289V9.82949C68.2099 9.4687 68.1027 9.17913 67.8881 8.96076C67.6736 8.74239 67.3004 8.6332 66.7687 8.6332C66.4143 8.6332 66.0645 8.66168 65.7193 8.71865C65.3742 8.76612 65.0757 8.83733 64.8238 8.93227L64.558 7.22329C64.6792 7.18532 64.8285 7.14734 65.0057 7.10936C65.1923 7.06189 65.3928 7.02391 65.6074 6.99543C65.8219 6.95745 66.0458 6.92897 66.279 6.90998C66.5215 6.8815 66.7641 6.86726 67.0066 6.86726ZM68.9375 4.375L66.6288 6.35456L65.6773 5.48583L67.6642 3.17871L68.9375 4.375Z" fill="white"/>
<path d="M76.3916 8.94651C76.2051 8.89904 75.9859 8.85157 75.734 8.8041C75.4822 8.74713 75.2116 8.71865 74.9225 8.71865C74.7919 8.71865 74.6333 8.73289 74.4467 8.76138C74.2695 8.78036 74.1342 8.8041 74.041 8.83258V14.5577H71.9561V7.4654C72.3292 7.33248 72.7677 7.20905 73.2714 7.09512C73.7844 6.97169 74.3534 6.90998 74.9784 6.90998C75.0904 6.90998 75.2256 6.91948 75.3842 6.93846C75.5428 6.94796 75.7014 6.96695 75.8599 6.99543C76.0185 7.01442 76.1771 7.0429 76.3357 7.08088C76.4943 7.10936 76.6295 7.14734 76.7415 7.19481L76.3916 8.94651ZM72.25 4.26106L73.0195 3.32113L74.4187 4.41772L75.818 3.32113L76.6155 4.26106L74.4187 6.21215L72.25 4.26106Z" fill="white"/>
<path d="M79.804 14.5577H77.7192V7.06664H79.804V14.5577ZM79.9999 4.90193C79.9999 5.2912 79.874 5.59976 79.6221 5.82763C79.3796 6.046 79.0904 6.15518 78.7546 6.15518C78.4188 6.15518 78.1249 6.046 77.8731 5.82763C77.6305 5.59976 77.5093 5.2912 77.5093 4.90193C77.5093 4.51266 77.6305 4.20885 77.8731 3.99048C78.1249 3.76261 78.4188 3.64868 78.7546 3.64868C79.0904 3.64868 79.3796 3.76261 79.6221 3.99048C79.874 4.20885 79.9999 4.51266 79.9999 4.90193Z" fill="white"/>
<mask id="mask0_66_3720" style="mask-type:alpha" maskUnits="userSpaceOnUse" x="2" y="0" width="19" height="23">
<path d="M11.4291 16.9195L7.20545 14.3865V9.01532L11.4291 6.48228L15.7899 9.02485V9.33707L14.532 10.052C14.2288 10.2242 14.041 10.5499 14.041 10.9033L14.041 12.4985C14.041 12.8518 14.2288 13.1775 14.532 13.3498L15.7899 14.0647V14.3769L11.4291 16.9195Z" fill="white"/>
<path fill-rule="evenodd" clip-rule="evenodd" d="M10.5086 1.09855C11.1171 0.726265 11.8782 0.726265 12.4867 1.09855L19.7282 5.52896C20.3045 5.88155 20.6569 6.51525 20.6569 7.19893V16.2028C20.6569 16.8865 20.3045 17.5202 19.7282 17.8728L12.4867 22.3032C11.8782 22.6755 11.1171 22.6755 10.5086 22.3032L3.26712 17.8728C2.69081 17.5202 2.33838 16.8865 2.33838 16.2028V7.19893C2.33838 6.51525 2.69081 5.88155 3.26712 5.52896L10.5086 1.09855ZM4.90604 15.0551C4.90604 15.4694 5.12132 15.8528 5.47205 16.0631L10.8373 19.2808C11.1931 19.4942 11.6341 19.4969 11.9925 19.288L17.5111 16.0703C17.8687 15.8618 18.0893 15.4745 18.0893 15.0551V13.378C18.0893 12.954 17.8639 12.5631 17.5001 12.3564L16.3467 11.7009L17.5001 11.0454C17.8639 10.8386 18.0893 10.4478 18.0893 10.0238V8.34672C18.0893 7.9273 17.8687 7.53997 17.5111 7.33147L11.9925 4.11381C11.6341 3.90485 11.1931 3.9076 10.8373 4.12101L5.47205 7.33866C5.12132 7.549 4.90604 7.93241 4.90604 8.34672V15.0551Z" fill="white"/>
</mask>
<g mask="url(#mask0_66_3720)">
<path opacity="0.8" d="M12.4867 1.09855C11.8782 0.726265 11.1171 0.726265 10.5086 1.09855L3.26712 5.52896C2.69081 5.88155 2.33838 6.51525 2.33838 7.19894V16.2029C2.33838 16.8865 2.69081 17.5202 3.26712 17.8728L10.5086 22.3032C11.1171 22.6755 11.8782 22.6755 12.4867 22.3032L19.7282 17.8728C20.3045 17.5202 20.6569 16.8865 20.6569 16.2028V7.19894C20.6569 6.51525 20.3045 5.88155 19.7282 5.52896L12.4867 1.09855Z" fill="white"/>
<path opacity="0.25" d="M4.65409 4.68066L20.6569 14.2685V16.2031C20.6569 16.8868 20.3045 17.5205 19.7282 17.8731L12.4867 22.3035C11.8782 22.6758 11.1171 22.6758 10.5086 22.3035L3.26712 17.8731C2.69081 17.5205 2.33838 16.8868 2.33838 16.2031V7.1992C2.33838 6.51552 2.69081 5.88182 3.26712 5.52922L4.65409 4.68066Z" fill="white"/>
<path opacity="0.25" d="M20.5566 16.8259L2.50871 6.39648C2.39815 6.64494 2.33838 6.91801 2.33838 7.19956V16.2035C2.33838 16.8872 2.69081 17.5209 3.26712 17.8735L10.5086 22.3039C11.1171 22.6761 11.8782 22.6761 12.4867 22.3039L19.7282 17.8735C20.1235 17.6316 20.4134 17.2576 20.5566 16.8259Z" fill="white"/>
<path opacity="0.25" d="M20.55 6.55762L2.5332 17.0591C2.69301 17.3911 2.94503 17.6757 3.26688 17.8726L10.5084 22.303C11.1169 22.6753 11.878 22.6753 12.4865 22.303L19.728 17.8726C20.3043 17.52 20.6567 16.8863 20.6567 16.2026V7.19866C20.6567 6.97711 20.6197 6.76081 20.55 6.55762Z" fill="white"/>
<path opacity="0.2" d="M10.5084 22.3028C10.5844 22.3494 10.6629 22.3901 10.7431 22.425C11.3048 22.6693 11.954 22.6286 12.4865 22.3028L19.728 17.8724C20.3043 17.5198 20.6567 16.8861 20.6567 16.2025V14.2679L14.081 10.3281L2.5332 17.059C2.69301 17.391 2.94503 17.6755 3.26687 17.8724L10.5084 22.3028Z" fill="white"/>
<path opacity="0.15" d="M11.7077 11.7119L20.5563 16.8253C20.4132 17.257 20.1232 17.6311 19.728 17.8729L12.4865 22.3033C12.4104 22.3499 12.332 22.3906 12.2517 22.4255C11.6901 22.6698 11.0408 22.6291 10.5084 22.3033L3.26688 17.8729C3.23086 17.8509 3.19572 17.8277 3.16148 17.8036C2.88978 17.6117 2.67513 17.3543 2.5332 17.0594L11.7077 11.7119Z" fill="white"/>
<path opacity="0.25" d="M20.657 9.18652L4.48096 18.6151L10.5087 22.3029C11.1172 22.6752 11.8783 22.6752 12.4868 22.3029L19.7283 17.8725C20.3046 17.5199 20.657 16.8862 20.657 16.2025V9.18652Z" fill="white"/>
<path opacity="0.15" d="M12.2521 22.4252C11.6904 22.6695 11.0412 22.6288 10.5087 22.303L4.48096 18.6152L16.3581 11.6924L20.657 14.268V16.2027C20.657 16.7842 20.402 17.3296 19.9712 17.6966C19.8955 17.761 19.8144 17.8199 19.7283 17.8726C19.7283 17.8726 19.7283 17.8726 19.7283 17.8726L12.4868 22.303L12.4868 22.303C12.4868 22.303 12.4868 22.303 12.4868 22.303C12.4107 22.3496 12.3323 22.3903 12.2521 22.4252Z" fill="white"/>
<path d="M19.7283 17.872C20.1235 17.6302 20.4135 17.2561 20.5567 16.8244L14.0265 13.0508L4.48096 18.6146L10.5087 22.3024C10.7051 22.4226 10.9174 22.5039 11.1353 22.5465C11.4238 22.6029 11.7222 22.5914 12.0066 22.5118C12.173 22.4653 12.3347 22.3955 12.4868 22.3024L12.4868 22.3024L19.7283 17.872Z" fill="white"/>
</g>
</svg>
