<svg width="140" height="109" viewBox="0 0 140 109" fill="none" xmlns="http://www.w3.org/2000/svg">
    <defs>
        <filter id="filter0_d_2616_22957" x="45.4514" y="5.75972" width="49.0971" height="44.4772" filterUnits="userSpaceOnUse" color-interpolation-filters="sRGB">
            <feFlood flood-opacity="0" result="BackgroundImageFix"/>
            <feColorMatrix in="SourceAlpha" type="matrix" values="0 0 0 0 0 0 0 0 0 0 0 0 0 0 0 0 0 0 127 0" result="hardAlpha"/>
            <feOffset dy="0.222943"/>
            <feGaussianBlur stdDeviation="2.78679"/>
            <feColorMatrix type="matrix" values="0 0 0 0 0 0 0 0 0 0 0 0 0 0 0 0 0 0 0.12 0"/>
            <feBlend mode="normal" in2="BackgroundImageFix" result="effect1_dropShadow_2616_22957"/>
            <feBlend mode="normal" in="SourceGraphic" in2="effect1_dropShadow_2616_22957" result="shape"/>
        </filter>
        <linearGradient id="paint0_linear_2616_22957" x1="81.7056" y1="27.8703" x2="43.7101" y2="27.7976" gradientUnits="userSpaceOnUse">
            <stop stop-color="#01CB8D"/>
            <stop offset="1" stop-color="#00D494"/>
        </linearGradient>
        <linearGradient id="paint1_linear_2616_22957" x1="57.8901" y1="29.149" x2="43.71" y2="29.149" gradientUnits="userSpaceOnUse">
            <stop stop-color="#01B384"/>
            <stop offset="1" stop-color="#01C68E"/>
        </linearGradient>
        <linearGradient id="paint2_linear_2616_22957" x1="51.0314" y1="34.32" x2="43.71" y2="34.3195" gradientUnits="userSpaceOnUse">
            <stop stop-color="#02A882"/>
            <stop offset="1" stop-color="#01BA8A"/>
        </linearGradient>
    </defs>
    <path d="M8.98697 98.1105C9.66049 98.1105 10.1369 98.0448 10.4162 97.9133C10.6954 97.7819 10.835 97.5273 10.835 97.1495C10.835 96.8538 10.6543 96.5992 10.2929 96.3856C9.93154 96.1556 9.38122 95.901 8.64199 95.6217C8.06703 95.4082 7.54136 95.1864 7.06496 94.9564C6.605 94.7264 6.21074 94.4554 5.88219 94.1433C5.55364 93.8147 5.29902 93.4287 5.11832 92.9851C4.93762 92.5416 4.84727 92.0077 4.84727 91.3835C4.84727 90.1678 5.29902 89.2068 6.20253 88.5005C7.10603 87.7941 8.3463 87.4409 9.92333 87.4409C10.7118 87.4409 11.4675 87.5148 12.1903 87.6627C12.9131 87.7941 13.4881 87.9419 13.9152 88.1062L13.2745 90.9646C12.8474 90.8167 12.3792 90.6853 11.87 90.5703C11.3772 90.4553 10.8186 90.3978 10.1944 90.3978C9.04446 90.3978 8.46951 90.7182 8.46951 91.3588C8.46951 91.5067 8.49415 91.6381 8.54343 91.7531C8.59271 91.8681 8.69127 91.9831 8.83912 92.0981C8.98697 92.1966 9.1841 92.3116 9.43051 92.443C9.69335 92.558 10.0219 92.6894 10.4162 92.8373C11.2211 93.133 11.8864 93.4287 12.4121 93.7244C12.9378 94.0036 13.3484 94.3158 13.6441 94.6607C13.9563 94.9893 14.1698 95.3589 14.2848 95.7696C14.4162 96.1803 14.4819 96.6567 14.4819 97.1988C14.4819 98.4801 13.9973 99.4493 13.0281 100.106C12.0753 100.763 10.7201 101.092 8.96233 101.092C7.81241 101.092 6.85141 100.993 6.07932 100.796C5.32366 100.599 4.79799 100.435 4.50229 100.304L5.11832 97.322C5.74256 97.5684 6.38323 97.7655 7.04032 97.9133C7.69742 98.0448 8.3463 98.1105 8.98697 98.1105ZM6.10396 82.9316L7.45922 81.3053L9.92333 83.2026L12.3874 81.3053L13.792 82.9316L9.92333 86.3074L6.10396 82.9316ZM20.6509 92.4677C21.0123 92.0734 21.3819 91.6627 21.7597 91.2356C22.154 90.8085 22.5318 90.3896 22.8932 89.9789C23.2546 89.5518 23.5914 89.1493 23.9035 88.7715C24.232 88.3937 24.5113 88.0651 24.7413 87.7859H29.1027C28.2321 88.7879 27.3779 89.7489 26.5401 90.6689C25.7187 91.5724 24.8152 92.5087 23.8296 93.478C24.3224 93.9215 24.8316 94.4554 25.3573 95.0796C25.883 95.6874 26.3922 96.3199 26.8851 96.977C27.3779 97.6341 27.8296 98.2912 28.2403 98.9483C28.651 99.6054 28.996 100.205 29.2752 100.747H25.0616C24.7988 100.32 24.4949 99.8518 24.1499 99.3425C23.8213 98.8169 23.4682 98.2994 23.0903 97.7901C22.7125 97.2645 22.31 96.7634 21.8829 96.287C21.4722 95.8106 21.0615 95.4082 20.6509 95.0796V100.747H16.9793V82.217L20.6509 81.6256V92.4677ZM42.2357 94.2418C42.2357 95.2603 42.0878 96.1967 41.7921 97.0509C41.4964 97.8887 41.0693 98.6115 40.5108 99.2193C39.9523 99.8107 39.2787 100.271 38.4902 100.599C37.7181 100.928 36.8475 101.092 35.8783 101.092C34.9255 101.092 34.0548 100.928 33.2663 100.599C32.4942 100.271 31.8289 99.8107 31.2704 99.2193C30.7119 98.6115 30.2765 97.8887 29.9644 97.0509C29.6523 96.1967 29.4962 95.2603 29.4962 94.2418C29.4962 93.2233 29.6523 92.2952 29.9644 91.4574C30.293 90.6196 30.7365 89.905 31.295 89.3136C31.87 88.7222 32.5435 88.2623 33.3156 87.9337C34.1041 87.6052 34.9583 87.4409 35.8783 87.4409C36.8146 87.4409 37.6689 87.6052 38.4409 87.9337C39.2295 88.2623 39.903 88.7222 40.4615 89.3136C41.02 89.905 41.4554 90.6196 41.7675 91.4574C42.0796 92.2952 42.2357 93.2233 42.2357 94.2418ZM38.4902 94.2418C38.4902 93.1083 38.2602 92.2213 37.8003 91.5806C37.3567 90.9235 36.7161 90.5949 35.8783 90.5949C35.0405 90.5949 34.3916 90.9235 33.9316 91.5806C33.4717 92.2213 33.2417 93.1083 33.2417 94.2418C33.2417 95.3753 33.4717 96.2788 33.9316 96.9523C34.3916 97.6094 35.0405 97.938 35.8783 97.938C36.7161 97.938 37.3567 97.6094 37.8003 96.9523C38.2602 96.2788 38.4902 95.3753 38.4902 94.2418ZM50.008 100.993C48.9402 100.977 48.0696 100.862 47.396 100.649C46.739 100.435 46.2133 100.139 45.819 99.7614C45.4412 99.3672 45.1784 98.899 45.0305 98.3569C44.8991 97.7984 44.8334 97.1741 44.8334 96.4842V82.217L48.5049 81.6256V95.7449C48.5049 96.0735 48.5295 96.3692 48.5788 96.632C48.6281 96.8948 48.7185 97.1166 48.8499 97.2973C48.9977 97.478 49.2031 97.6259 49.4659 97.7409C49.7287 97.8559 50.0819 97.9298 50.5255 97.9626L50.008 100.993ZM57.6974 98.1844C58.0588 98.1844 58.4037 98.1762 58.7323 98.1598C59.0608 98.1433 59.3237 98.1187 59.5208 98.0858V95.3014C59.373 95.2685 59.1512 95.2357 58.8555 95.2028C58.5598 95.17 58.2888 95.1535 58.0423 95.1535C57.6974 95.1535 57.3688 95.1782 57.0567 95.2275C56.761 95.2603 56.4982 95.3342 56.2682 95.4492C56.0382 95.5642 55.8575 95.7203 55.7261 95.9174C55.5947 96.1145 55.529 96.361 55.529 96.6567C55.529 97.2316 55.7179 97.6341 56.0957 97.8641C56.49 98.0776 57.0238 98.1844 57.6974 98.1844ZM57.4017 87.4409C58.4859 87.4409 59.3894 87.5641 60.1122 87.8105C60.835 88.0569 61.41 88.4101 61.8371 88.8701C62.2806 89.33 62.5927 89.8886 62.7734 90.5457C62.9541 91.2028 63.0445 91.9338 63.0445 92.7387V100.377C62.5188 100.492 61.7878 100.624 60.8514 100.772C59.9151 100.936 58.7816 101.018 57.451 101.018C56.6132 101.018 55.8493 100.944 55.1593 100.796C54.4858 100.649 53.9026 100.41 53.4098 100.082C52.917 99.7368 52.5392 99.2932 52.2763 98.7511C52.0135 98.209 51.8821 97.5437 51.8821 96.7552C51.8821 95.9996 52.0299 95.3589 52.3256 94.8332C52.6377 94.3075 53.0484 93.8886 53.5577 93.5765C54.0669 93.2644 54.6501 93.0426 55.3072 92.9112C55.9643 92.7634 56.646 92.6894 57.3524 92.6894C57.8288 92.6894 58.2477 92.7141 58.6091 92.7634C58.9869 92.7962 59.2908 92.8455 59.5208 92.9112V92.5662C59.5208 91.942 59.3319 91.441 58.9541 91.0631C58.5762 90.6853 57.9191 90.4964 56.9828 90.4964C56.3585 90.4964 55.7425 90.5457 55.1347 90.6442C54.5269 90.7264 54.0012 90.8496 53.5577 91.0138L53.0895 88.0569C53.303 87.9912 53.5659 87.9255 53.878 87.8598C54.2065 87.7777 54.5597 87.7119 54.9376 87.6627C55.3154 87.597 55.7097 87.5477 56.1203 87.5148C56.5474 87.4655 56.9746 87.4409 57.4017 87.4409Z" fill="#254754"/>
<path d="M78.2415 94.2418C78.2415 95.2603 78.0936 96.1967 77.7979 97.0509C77.5022 97.8887 77.0751 98.6115 76.5166 99.2193C75.9581 99.8107 75.2845 100.271 74.496 100.599C73.7239 100.928 72.8533 101.092 71.8841 101.092C70.9313 101.092 70.0606 100.928 69.2721 100.599C68.5 100.271 67.8347 99.8107 67.2762 99.2193C66.7177 98.6115 66.2823 97.8887 65.9702 97.0509C65.6581 96.1967 65.502 95.2603 65.502 94.2418C65.502 93.2233 65.6581 92.2952 65.9702 91.4574C66.2988 90.6196 66.7423 89.905 67.3008 89.3136C67.8758 88.7222 68.5493 88.2623 69.3214 87.9337C70.1099 87.6052 70.9641 87.4409 71.8841 87.4409C72.8204 87.4409 73.6747 87.6052 74.4467 87.9337C75.2353 88.2623 75.9088 88.7222 76.4673 89.3136C77.0258 89.905 77.4612 90.6196 77.7733 91.4574C78.0854 92.2952 78.2415 93.2233 78.2415 94.2418ZM74.496 94.2418C74.496 93.1083 74.266 92.2213 73.8061 91.5806C73.3625 90.9235 72.7219 90.5949 71.8841 90.5949C71.0463 90.5949 70.3974 90.9235 69.9374 91.5806C69.4775 92.2213 69.2475 93.1083 69.2475 94.2418C69.2475 95.3753 69.4775 96.2788 69.9374 96.9523C70.3974 97.6094 71.0463 97.938 71.8841 97.938C72.7219 97.938 73.3625 97.6094 73.8061 96.9523C74.266 96.2788 74.496 95.3753 74.496 94.2418ZM80.8392 88.2294C81.4634 88.0487 82.2684 87.8844 83.254 87.7366C84.2396 87.5723 85.2746 87.4902 86.3588 87.4902C87.4594 87.4902 88.3711 87.638 89.0939 87.9337C89.8332 88.213 90.4163 88.6154 90.8435 89.1411C91.2706 89.6668 91.5745 90.291 91.7552 91.0138C91.9359 91.7367 92.0262 92.5416 92.0262 93.4287V100.747H88.3547V93.8722C88.3547 92.6894 88.1986 91.8516 87.8865 91.3588C87.5744 90.866 86.9912 90.6196 86.137 90.6196C85.8742 90.6196 85.5949 90.636 85.2992 90.6689C85.0035 90.6853 84.7407 90.7099 84.5107 90.7428V100.747H80.8392V88.2294ZM100.278 100.993C99.2099 100.977 98.3393 100.862 97.6658 100.649C97.0087 100.435 96.483 100.139 96.0887 99.7614C95.7109 99.3672 95.4481 98.899 95.3002 98.3569C95.1688 97.7984 95.1031 97.1741 95.1031 96.4842V82.217L98.7746 81.6256V95.7449C98.7746 96.0735 98.7992 96.3692 98.8485 96.632C98.8978 96.8948 98.9882 97.1166 99.1196 97.2973C99.2674 97.478 99.4728 97.6259 99.7356 97.7409C99.9984 97.8559 100.352 97.9298 100.795 97.9626L100.278 100.993ZM106.325 100.747H102.653V87.7859H106.325V100.747ZM106.67 84.0404C106.67 84.7139 106.448 85.2478 106.004 85.6421C105.577 86.0199 105.068 86.2088 104.477 86.2088C103.885 86.2088 103.368 86.0199 102.924 85.6421C102.497 85.2478 102.284 84.7139 102.284 84.0404C102.284 83.3669 102.497 82.8412 102.924 82.4634C103.368 82.0691 103.885 81.872 104.477 81.872C105.068 81.872 105.577 82.0691 106.004 82.4634C106.448 82.8412 106.67 83.3669 106.67 84.0404ZM109.53 88.2294C110.154 88.0487 110.959 87.8844 111.944 87.7366C112.93 87.5723 113.965 87.4902 115.049 87.4902C116.15 87.4902 117.062 87.638 117.784 87.9337C118.524 88.213 119.107 88.6154 119.534 89.1411C119.961 89.6668 120.265 90.291 120.446 91.0138C120.626 91.7367 120.717 92.5416 120.717 93.4287V100.747H117.045V93.8722C117.045 92.6894 116.889 91.8516 116.577 91.3588C116.265 90.866 115.682 90.6196 114.828 90.6196C114.565 90.6196 114.285 90.636 113.99 90.6689C113.694 90.6853 113.431 90.7099 113.201 90.7428V100.747H109.53V88.2294ZM123.178 94.365C123.178 93.2151 123.35 92.213 123.695 91.3588C124.056 90.4882 124.525 89.7654 125.1 89.1904C125.675 88.6154 126.332 88.1801 127.071 87.8844C127.827 87.5887 128.599 87.4409 129.387 87.4409C131.227 87.4409 132.681 88.0076 133.749 89.1411C134.816 90.2582 135.35 91.9091 135.35 94.094C135.35 94.3075 135.342 94.5457 135.326 94.8086C135.309 95.055 135.293 95.2768 135.276 95.4739H126.948C127.03 96.2295 127.383 96.8291 128.007 97.2727C128.631 97.7162 129.469 97.938 130.521 97.938C131.194 97.938 131.851 97.8805 132.492 97.7655C133.149 97.6341 133.683 97.478 134.094 97.2973L134.586 100.279C134.389 100.377 134.126 100.476 133.798 100.575C133.469 100.673 133.1 100.755 132.689 100.821C132.295 100.903 131.868 100.969 131.408 101.018C130.948 101.067 130.488 101.092 130.028 101.092C128.861 101.092 127.843 100.92 126.972 100.575C126.118 100.23 125.403 99.7614 124.829 99.17C124.27 98.5622 123.851 97.8476 123.572 97.0263C123.309 96.2049 123.178 95.3178 123.178 94.365ZM131.802 92.9605C131.785 92.6484 131.728 92.3445 131.629 92.0488C131.547 91.7531 131.408 91.4902 131.211 91.2603C131.03 91.0303 130.792 90.8414 130.496 90.6935C130.217 90.5457 129.863 90.4717 129.436 90.4717C129.026 90.4717 128.673 90.5457 128.377 90.6935C128.081 90.8249 127.835 91.0056 127.638 91.2356C127.44 91.4656 127.284 91.7367 127.169 92.0488C127.071 92.3445 126.997 92.6484 126.948 92.9605H131.802Z" fill="#37C999"/>
<mask id="mask0_2616_22957" style="mask-type:alpha" maskUnits="userSpaceOnUse" x="43" y="2" width="54" height="62">
<path fill-rule="evenodd" clip-rule="evenodd" d="M72.8389 3.09706C71.0923 2.04708 68.9077 2.04707 67.1611 3.09706L46.3757 15.5924C44.7215 16.5869 43.71 18.3742 43.71 20.3024V45.6967C43.71 47.625 44.7215 49.4123 46.3757 50.4067L67.1611 62.9021C68.9077 63.9521 71.0923 63.9521 72.8389 62.9021L93.6242 50.4067C95.2784 49.4123 96.29 47.625 96.29 45.6967V20.3024C96.29 18.3742 95.2784 16.5869 93.6242 15.5924L72.8389 3.09706Z" fill="#37C999"/>
</mask>
<g mask="url(#mask0_2616_22957)">
<path fill-rule="evenodd" clip-rule="evenodd" d="M72.8389 3.09706C71.0923 2.04708 68.9077 2.04707 67.1611 3.09706L46.3757 15.5924C44.7215 16.5869 43.71 18.3742 43.71 20.3024V45.6967C43.71 47.625 44.7215 49.4123 46.3757 50.4067L67.1611 62.9021C68.9077 63.9521 71.0923 63.9521 72.8389 62.9021L93.6242 50.4067C95.2784 49.4123 96.29 47.625 96.29 45.6967V20.3024C96.29 18.3742 95.2784 16.5869 93.6242 15.5924L72.8389 3.09706Z" fill="#00DC9A"/>
<path d="M43.71 20.3024V45.6967C43.71 47.625 44.7215 49.4123 46.3757 50.4067L67.1611 62.9021C68.9077 63.9521 71.0923 63.9521 72.8389 62.9021L82.1 57.3346V8.66449L72.8389 3.09706C71.0923 2.04708 68.9077 2.04707 67.1611 3.09706L46.3757 15.5924C44.7215 16.5869 43.71 18.3742 43.71 20.3024Z" fill="url(#paint0_linear_2616_22957)"/>
<path d="M57.8901 8.66992V57.3283L46.3757 50.4062C44.7215 49.4118 43.71 47.6245 43.71 45.6963V20.3019C43.71 18.3737 44.7215 16.5864 46.3757 15.592L57.8901 8.66992Z" fill="url(#paint1_linear_2616_22957)"/>
<path d="M51.0314 12.7939V53.2059L46.3757 50.407C44.7215 49.4126 43.71 47.6253 43.71 45.6971V20.3027C43.71 18.3745 44.7215 16.5872 46.3757 15.5928L51.0314 12.7939Z" fill="url(#paint2_linear_2616_22957)" fill-opacity="0.8"/>
</g>
<g filter="url(#filter0_d_2616_22957)">
<path fill-rule="evenodd" clip-rule="evenodd" d="M57.8835 37.588L67.3138 37.588C69.2077 37.588 70.743 39.1219 70.743 41.0142C70.743 42.9065 69.2077 44.4404 67.3138 44.4404L54.9115 44.4404C52.765 44.4404 51.025 42.7019 51.025 40.5574L51.025 24.0291C51.025 22.6577 51.7491 21.388 52.9298 20.6888L68.0772 11.6531C69.3108 10.9226 70.8466 10.9301 72.073 11.6725L87.1027 20.7052C88.265 21.409 88.975 22.6683 88.975 24.0262L88.975 41.0142C88.975 42.9064 87.4397 44.4404 85.5458 44.4404C83.6519 44.4404 82.1 42.9227 82.1 41.0304L82.1 25.6854L70 18.4254L57.9 25.6854L57.8835 37.588Z" fill="white"/>
</g>
</svg>
