<?xml version="1.0" encoding="UTF-8" standalone="no"?>
<svg
   xmlns:dc="http://purl.org/dc/elements/1.1/"
   xmlns:cc="http://creativecommons.org/ns#"
   xmlns:rdf="http://www.w3.org/1999/02/22-rdf-syntax-ns#"
   xmlns:svg="http://www.w3.org/2000/svg"
   xmlns="http://www.w3.org/2000/svg"
   xmlns:sodipodi="http://sodipodi.sourceforge.net/DTD/sodipodi-0.dtd"
   xmlns:inkscape="http://www.inkscape.org/namespaces/inkscape"
   inkscape:version="1.0 (4035a4fb49, 2020-05-01)"
   sodipodi:docname="SOL-logo-horizontal-light.svg"
   id="svg73"
   version="1.1"
   fill="none"
   height="31.885599"
   width="149.0318">
  <metadata
     id="metadata77">
    <rdf:RDF>
      <cc:Work
         rdf:about="">
        <dc:format>image/svg+xml</dc:format>
        <dc:type
           rdf:resource="http://purl.org/dc/dcmitype/StillImage" />
        <dc:title></dc:title>
      </cc:Work>
    </rdf:RDF>
  </metadata>
  <sodipodi:namedview
     inkscape:current-layer="svg73"
     inkscape:window-maximized="1"
     inkscape:window-y="-9"
     inkscape:window-x="-9"
     inkscape:cy="16.94285"
     inkscape:cx="28.8228"
     inkscape:zoom="4.706422"
     fit-margin-bottom="0"
     fit-margin-right="0"
     fit-margin-left="0"
     fit-margin-top="0"
     showgrid="false"
     id="namedview75"
     inkscape:window-height="1361"
     inkscape:window-width="3440"
     inkscape:pageshadow="2"
     inkscape:pageopacity="0"
     guidetolerance="10"
     gridtolerance="10"
     objecttolerance="10"
     borderopacity="1"
     bordercolor="#666666"
     pagecolor="#ffffff" />
  <defs
     id="defs32" />
  <path
     id="path34"
     fill="#37c999"
     d="m 102.2878,16.26285 c 0,0.827 -0.121,1.587 -0.363,2.28 -0.242,0.68 -0.592,1.267 -1.049,1.76 -0.457,0.48 -1.008,0.853 -1.654,1.12 -0.632,0.267 -1.344,0.4 -2.138,0.4 -0.78,0 -1.492,-0.133 -2.138,-0.4 -0.632,-0.267 -1.176,-0.64 -1.633,-1.12 -0.457,-0.493 -0.814,-1.08 -1.069,-1.76 -0.256,-0.693 -0.383,-1.453 -0.383,-2.28 0,-0.827 0.127,-1.58 0.383,-2.26 0.269,-0.68 0.632,-1.26 1.089,-1.74 0.471,-0.48 1.022,-0.853 1.654,-1.12 0.645,-0.267 1.344,-0.4 2.097,-0.4 0.767,0 1.466,0.133 2.098,0.4 0.645,0.267 1.197,0.64 1.654,1.12 0.457,0.48 0.813,1.06 1.069,1.74 0.255,0.68 0.383,1.433 0.383,2.26 z m -3.066,0 c 0,-0.92 -0.188,-1.64 -0.564,-2.16 -0.364,-0.533 -0.888,-0.8 -1.574,-0.8 -0.685,0 -1.217,0.267 -1.593,0.8 -0.376,0.52 -0.565,1.24 -0.565,2.16 0,0.92 0.189,1.653 0.565,2.2 0.376,0.533 0.908,0.8 1.593,0.8 0.686,0 1.21,-0.267 1.574,-0.8 0.376,-0.547 0.564,-1.28 0.564,-2.2 z" />
  <path
     id="path36"
     fill="#37c999"
     d="m 104.4138,11.38285 c 0.511,-0.147 1.17,-0.28 1.977,-0.4 0.807,-0.133 1.654,-0.2 2.541,-0.2 0.901,0 1.647,0.12 2.239,0.36 0.605,0.227 1.082,0.553 1.432,0.98 0.349,0.427 0.598,0.933 0.746,1.52 0.148,0.587 0.222,1.24 0.222,1.96 v 5.94 h -3.005 v -5.58 c 0,-0.96 -0.128,-1.64 -0.383,-2.04 -0.256,-0.4 -0.733,-0.6 -1.432,-0.6 -0.216,0 -0.444,0.013 -0.686,0.04 -0.242,0.013 -0.457,0.033 -0.646,0.06 v 8.12 h -3.005 z" />
  <path
     id="path38"
     fill="#37c999"
     d="m 120.3248,21.74285 c -0.874,-0.013 -1.587,-0.107 -2.138,-0.28 -0.538,-0.173 -0.968,-0.413 -1.291,-0.72 -0.309,-0.32 -0.524,-0.7 -0.645,-1.14 -0.108,-0.453 -0.162,-0.96 -0.162,-1.52 v -11.58 l 3.006,-0.48 v 11.46 c 0,0.267 0.02,0.507 0.06,0.72 0.04,0.213 0.114,0.393 0.222,0.54 0.121,0.147 0.289,0.267 0.504,0.36 0.215,0.093 0.504,0.153 0.867,0.18 z" />
  <path
     id="path40"
     fill="#37c999"
     d="m 125.2738,21.54285 h -3.005 v -10.52 h 3.005 z m 0.283,-13.56 c 0,0.547 -0.182,0.98 -0.545,1.3 -0.349,0.307 -0.766,0.46 -1.25,0.46 -0.484,0 -0.908,-0.153 -1.271,-0.46 -0.349,-0.32 -0.524,-0.753 -0.524,-1.3 0,-0.5466 0.175,-0.9733 0.524,-1.28 0.363,-0.32 0.787,-0.48 1.271,-0.48 0.484,0 0.901,0.16 1.25,0.48 0.363,0.3067 0.545,0.7334 0.545,1.28 z" />
  <path
     id="path42"
     fill="#37c999"
     d="m 127.8978,11.38285 c 0.511,-0.147 1.169,-0.28 1.976,-0.4 0.807,-0.133 1.654,-0.2 2.541,-0.2 0.901,0 1.648,0.12 2.239,0.36 0.605,0.227 1.083,0.553 1.432,0.98 0.35,0.427 0.599,0.933 0.746,1.52 0.148,0.587 0.222,1.24 0.222,1.96 v 5.94 h -3.005 v -5.58 c 0,-0.96 -0.128,-1.64 -0.383,-2.04 -0.256,-0.4 -0.733,-0.6 -1.432,-0.6 -0.215,0 -0.444,0.013 -0.686,0.04 -0.242,0.013 -0.457,0.033 -0.645,0.06 v 8.12 h -3.005 z" />
  <path
     id="path44"
     fill="#37c999"
     d="m 139.0688,16.36285 c 0,-0.933 0.141,-1.747 0.423,-2.44 0.296,-0.707 0.679,-1.293 1.15,-1.76 0.47,-0.467 1.008,-0.82 1.613,-1.06 0.619,-0.24 1.251,-0.36 1.896,-0.36 1.506,0 2.696,0.46 3.57,1.38 0.874,0.907 1.311,2.247 1.311,4.02 0,0.173 -0.007,0.367 -0.02,0.58 -0.014,0.2 -0.027,0.38 -0.04,0.54 h -6.818 c 0.068,0.613 0.357,1.1 0.868,1.46 0.511,0.36 1.196,0.54 2.057,0.54 0.551,0 1.089,-0.047 1.613,-0.14 0.538,-0.107 0.975,-0.233 1.311,-0.38 l 0.404,2.42 c -0.162,0.08 -0.377,0.16 -0.646,0.24 -0.269,0.08 -0.571,0.147 -0.907,0.2 -0.323,0.067 -0.673,0.12 -1.049,0.16 -0.376,0.04 -0.753,0.06 -1.129,0.06 -0.955,0 -1.789,-0.14 -2.501,-0.42 -0.7,-0.28 -1.285,-0.66 -1.755,-1.14 -0.457,-0.493 -0.8,-1.073 -1.029,-1.74 -0.215,-0.667 -0.322,-1.387 -0.322,-2.16 z m 7.059,-1.14 c -0.014,-0.253 -0.061,-0.5 -0.141,-0.74 -0.068,-0.24 -0.182,-0.453 -0.343,-0.64 -0.148,-0.187 -0.343,-0.34 -0.585,-0.46 -0.229,-0.12 -0.518,-0.18 -0.868,-0.18 -0.336,0 -0.625,0.06 -0.867,0.18 -0.242,0.107 -0.444,0.253 -0.605,0.44 -0.161,0.187 -0.289,0.407 -0.383,0.66 -0.081,0.24 -0.141,0.487 -0.182,0.74 z" />
  <path
     id="path46"
     fill="#254754"
     d="m 45.6018,19.40285 c 0.552,0 0.942,-0.053 1.17,-0.16 0.229,-0.107 0.343,-0.313 0.343,-0.62 0,-0.24 -0.148,-0.447 -0.444,-0.62 -0.295,-0.187 -0.746,-0.393 -1.351,-0.62 -0.471,-0.173 -0.901,-0.353 -1.291,-0.54 -0.376,-0.187 -0.699,-0.407 -0.968,-0.66 -0.269,-0.267 -0.477,-0.58 -0.625,-0.94 -0.148,-0.36 -0.222,-0.793 -0.222,-1.3 0,-0.987 0.37,-1.767 1.109,-2.34 0.74,-0.573 1.755,-0.86 3.046,-0.86 0.645,0 1.264,0.06 1.855,0.18 0.592,0.107 1.063,0.227 1.412,0.36 l -0.524,2.32 c -0.35,-0.12 -0.733,-0.227 -1.15,-0.32 -0.403,-0.093 -0.86,-0.14 -1.371,-0.14 -0.942,0 -1.412,0.26 -1.412,0.78 0,0.12 0.02,0.227 0.06,0.32 0.041,0.093 0.121,0.187 0.242,0.28 0.121,0.08 0.283,0.173 0.484,0.28 0.216,0.093 0.484,0.2 0.807,0.32 0.659,0.24 1.204,0.48 1.634,0.72 0.43,0.227 0.766,0.48 1.008,0.76 0.256,0.267 0.431,0.567 0.525,0.9 0.107,0.333 0.161,0.72 0.161,1.16 0,1.04 -0.397,1.827 -1.19,2.36 -0.78,0.533 -1.889,0.8 -3.328,0.8 -0.941,0 -1.728,-0.08 -2.36,-0.24 -0.618,-0.16 -1.048,-0.293 -1.29,-0.4 l 0.504,-2.42 c 0.511,0.2 1.035,0.36 1.573,0.48 0.538,0.107 1.069,0.16 1.593,0.16 z m -2.359,-12.32 1.109,-1.32 2.017,1.54 2.017,-1.54 1.149,1.32 -3.166,2.74 z" />
  <path
     id="path48"
     fill="#254754"
     d="m 55.1488,14.82285 c 0.296,-0.32 0.599,-0.653 0.908,-1 0.323,-0.347 0.632,-0.687 0.928,-1.02 0.296,-0.347 0.571,-0.673 0.827,-0.98 0.269,-0.307 0.497,-0.573 0.685,-0.8 h 3.57 c -0.712,0.813 -1.411,1.593 -2.097,2.34 -0.673,0.733 -1.412,1.493 -2.219,2.28 0.404,0.36 0.82,0.793 1.251,1.3 0.43,0.493 0.847,1.007 1.25,1.54 0.404,0.533 0.773,1.067 1.109,1.6 0.337,0.533 0.619,1.02 0.848,1.46 h -3.449 c -0.215,-0.347 -0.464,-0.727 -0.747,-1.14 -0.269,-0.427 -0.558,-0.847 -0.867,-1.26 -0.309,-0.427 -0.639,-0.833 -0.988,-1.22 -0.336,-0.387 -0.672,-0.713 -1.009,-0.98 v 4.6 h -3.005 v -15.04 l 3.005,-0.48 z" />
  <path
     id="path50"
     fill="#254754"
     d="m 72.8168,16.26285 c 0,0.827 -0.121,1.587 -0.363,2.28 -0.242,0.68 -0.592,1.267 -1.049,1.76 -0.457,0.48 -1.008,0.853 -1.654,1.12 -0.632,0.267 -1.344,0.4 -2.138,0.4 -0.78,0 -1.492,-0.133 -2.138,-0.4 -0.632,-0.267 -1.176,-0.64 -1.633,-1.12 -0.458,-0.493 -0.814,-1.08 -1.069,-1.76 -0.256,-0.693 -0.384,-1.453 -0.384,-2.28 0,-0.827 0.128,-1.58 0.384,-2.26 0.269,-0.68 0.632,-1.26 1.089,-1.74 0.47,-0.48 1.022,-0.853 1.654,-1.12 0.645,-0.267 1.344,-0.4 2.097,-0.4 0.767,0 1.466,0.133 2.098,0.4 0.645,0.267 1.196,0.64 1.654,1.12 0.457,0.48 0.813,1.06 1.069,1.74 0.255,0.68 0.383,1.433 0.383,2.26 z m -3.066,0 c 0,-0.92 -0.188,-1.64 -0.565,-2.16 -0.363,-0.533 -0.887,-0.8 -1.573,-0.8 -0.686,0 -1.217,0.267 -1.593,0.8 -0.377,0.52 -0.565,1.24 -0.565,2.16 0,0.92 0.188,1.653 0.565,2.2 0.376,0.533 0.907,0.8 1.593,0.8 0.686,0 1.21,-0.267 1.573,-0.8 0.377,-0.547 0.565,-1.28 0.565,-2.2 z" />
  <path
     id="path52"
     fill="#254754"
     d="m 79.1788,21.74285 c -0.874,-0.013 -1.587,-0.107 -2.138,-0.28 -0.538,-0.173 -0.968,-0.413 -1.291,-0.72 -0.309,-0.32 -0.525,-0.7 -0.646,-1.14 -0.107,-0.453 -0.161,-0.96 -0.161,-1.52 v -11.58 l 3.005,-0.48 v 11.46 c 0,0.267 0.02,0.507 0.061,0.72 0.04,0.213 0.114,0.393 0.222,0.54 0.121,0.147 0.289,0.267 0.504,0.36 0.215,0.093 0.504,0.153 0.867,0.18 z" />
  <path
     id="path54"
     fill="#254754"
     d="m 85.4718,19.46285 c 0.296,0 0.579,-0.007 0.847,-0.02 0.269,-0.013 0.485,-0.033 0.646,-0.06 v -2.26 c -0.121,-0.027 -0.303,-0.053 -0.545,-0.08 -0.242,-0.027 -0.464,-0.04 -0.665,-0.04 -0.283,0 -0.552,0.02 -0.807,0.06 -0.242,0.027 -0.457,0.087 -0.645,0.18 -0.189,0.093 -0.337,0.22 -0.444,0.38 -0.108,0.16 -0.162,0.36 -0.162,0.6 0,0.467 0.155,0.793 0.464,0.98 0.323,0.173 0.76,0.26 1.311,0.26 z m -0.242,-8.72 c 0.888,0 1.627,0.1 2.219,0.3 0.592,0.2 1.062,0.487 1.412,0.86 0.363,0.373 0.618,0.827 0.766,1.36 0.148,0.533 0.222,1.127 0.222,1.78 v 6.2 c -0.43,0.093 -1.029,0.2 -1.795,0.32 -0.766,0.133 -1.694,0.2 -2.783,0.2 -0.686,0 -1.311,-0.06 -1.876,-0.18 -0.551,-0.12 -1.029,-0.313 -1.432,-0.58 -0.403,-0.28 -0.713,-0.64 -0.928,-1.08 -0.215,-0.44 -0.323,-0.98 -0.323,-1.62 0,-0.613 0.121,-1.133 0.364,-1.56 0.255,-0.427 0.591,-0.767 1.008,-1.02 0.417,-0.253 0.894,-0.433 1.432,-0.54 0.538,-0.12 1.096,-0.18 1.674,-0.18 0.39,0 0.733,0.02 1.029,0.06 0.309,0.027 0.558,0.067 0.746,0.12 v -0.28 c 0,-0.507 -0.155,-0.913 -0.464,-1.22 -0.309,-0.307 -0.847,-0.46 -1.614,-0.46 -0.51,0 -1.015,0.04 -1.512,0.12 -0.498,0.067 -0.928,0.167 -1.291,0.3 l -0.383,-2.4 c 0.175,-0.053 0.39,-0.107 0.645,-0.16 0.269,-0.067 0.558,-0.12 0.867,-0.16 0.31,-0.053 0.632,-0.093 0.969,-0.12 0.349,-0.04 0.699,-0.06 1.048,-0.06 z" />
  <mask
     height="32"
     width="29"
     y="92"
     x="96"
     maskUnits="userSpaceOnUse"
     id="mask0_5068_54255">
    <path
       id="path56"
       fill="#15c188"
       d="m 111.937,92.4662 c -0.915,-0.5454 -2.059,-0.5454 -2.974,0 l -10.8892,6.4911 c -0.8666,0.5166 -1.3966,1.4447 -1.3966,2.4467 v 13.192 c 0,1.002 0.53,1.93 1.3966,2.447 l 10.8892,6.491 c 0.915,0.545 2.059,0.545 2.974,0 l 10.889,-6.491 c 0.866,-0.517 1.396,-1.445 1.396,-2.447 v -13.192 c 0,-1.002 -0.53,-1.9301 -1.396,-2.4467 z"
       clip-rule="evenodd"
       fill-rule="evenodd" />
  </mask>
  <g
     transform="translate(-96.6772,-92.05715)"
     id="g67">
    <path
       id="path59"
       fill="#00dc9a"
       d="m 111.937,92.4662 c -0.915,-0.5454 -2.059,-0.5454 -2.974,0 l -10.8892,6.4911 c -0.8666,0.5166 -1.3966,1.4447 -1.3966,2.4467 v 13.192 c 0,1.002 0.53,1.93 1.3966,2.447 l 10.8892,6.491 c 0.915,0.545 2.059,0.545 2.974,0 l 10.889,-6.491 c 0.866,-0.517 1.396,-1.445 1.396,-2.447 v -13.192 c 0,-1.002 -0.53,-1.9301 -1.396,-2.4467 z"
       clip-rule="evenodd"
       fill-rule="evenodd" />
    <path
       id="path61"
       d="m 96.6772,101.404 v 13.192 c 0,1.002 0.53,1.93 1.3966,2.447 l 10.8892,6.491 c 0.915,0.545 2.059,0.545 2.974,0 l 4.852,-2.892 V 95.3584 l -4.852,-2.8922 c -0.915,-0.5454 -2.059,-0.5454 -2.974,0 l -10.8892,6.4911 c -0.8666,0.5166 -1.3966,1.4447 -1.3966,2.4467 z" />
    <path
       id="path63"
       d="m 104.106,95.3615 v 25.2775 l -6.0322,-3.596 c -0.8666,-0.517 -1.3966,-1.445 -1.3966,-2.447 v -13.192 c 0,-1.002 0.53,-1.9301 1.3966,-2.4467 z" />
    <path
       id="path65"
       fill-opacity="0.8"
       d="m 100.513,97.5034 v 20.9936 l -2.4392,-1.454 c -0.8666,-0.517 -1.3966,-1.445 -1.3966,-2.447 v -13.192 c 0,-1.002 0.53,-1.9301 1.3966,-2.4467 z" />
  </g>
  <g
     transform="translate(-96.6772,-92.05715)"
     id="g71">
    <path
       id="path69"
       fill="#ffffff"
       d="m 104.102,110.383 h 4.94 c 0.993,0 1.797,0.797 1.797,1.78 0,0.983 -0.804,1.78 -1.797,1.78 h -6.497 c -1.124,0 -2.036,-0.903 -2.036,-2.017 v -8.586 c 0,-0.713 0.38,-1.372 0.998,-1.736 l 7.935,-4.6935 c 0.647,-0.3795 1.451,-0.3756 2.094,0.0101 l 7.873,4.6924 c 0.609,0.365 0.981,1.02 0.981,1.725 v 8.825 c 0,0.983 -0.804,1.78 -1.796,1.78 -0.993,0 -1.805,-0.789 -1.805,-1.772 V 104.2 l -6.339,-3.771 -6.339,3.771 z"
       clip-rule="evenodd"
       fill-rule="evenodd" />
  </g>
</svg>
