<svg width="266" height="226" viewBox="0 0 266 226" fill="none" xmlns="http://www.w3.org/2000/svg">
<g filter="url(#filter0_dd_2616_21837)">
<path d="M143.549 149.345C143.549 150.632 143.362 151.815 142.986 152.895C142.611 153.953 142.069 154.866 141.361 155.634C140.652 156.382 139.798 156.963 138.797 157.378C137.818 157.793 136.713 158 135.484 158C134.275 158 133.17 157.793 132.17 157.378C131.191 156.963 130.347 156.382 129.638 155.634C128.929 154.866 128.377 153.953 127.981 152.895C127.585 151.815 127.387 150.632 127.387 149.345C127.387 148.059 127.585 146.886 127.981 145.827C128.398 144.769 128.961 143.866 129.669 143.119C130.399 142.372 131.253 141.79 132.233 141.375C133.233 140.96 134.317 140.753 135.484 140.753C136.672 140.753 137.755 140.96 138.735 141.375C139.735 141.79 140.59 142.372 141.298 143.119C142.007 143.866 142.559 144.769 142.955 145.827C143.351 146.886 143.549 148.059 143.549 149.345ZM138.797 149.345C138.797 147.913 138.506 146.793 137.922 145.983C137.359 145.153 136.547 144.738 135.484 144.738C134.421 144.738 133.598 145.153 133.014 145.983C132.431 146.793 132.139 147.913 132.139 149.345C132.139 150.778 132.431 151.919 133.014 152.77C133.598 153.6 134.421 154.015 135.484 154.015C136.547 154.015 137.359 153.6 137.922 152.77C138.506 151.919 138.797 150.778 138.797 149.345Z" fill="white"/>
<path d="M146.845 141.749C147.637 141.521 148.658 141.313 149.908 141.126C151.159 140.919 152.472 140.815 153.847 140.815C155.243 140.815 156.4 141.002 157.317 141.375C158.255 141.728 158.995 142.237 159.537 142.901C160.078 143.565 160.464 144.354 160.693 145.267C160.922 146.18 161.037 147.197 161.037 148.318V157.565H156.379V148.878C156.379 147.384 156.181 146.326 155.785 145.703C155.389 145.08 154.649 144.769 153.566 144.769C153.232 144.769 152.878 144.79 152.503 144.831C152.128 144.852 151.794 144.883 151.503 144.925V157.565H146.845V141.749Z" fill="white"/>
<path d="M171.505 157.876C170.151 157.855 169.046 157.71 168.192 157.44C167.358 157.17 166.691 156.797 166.191 156.319C165.712 155.821 165.378 155.23 165.191 154.545C165.024 153.839 164.941 153.05 164.941 152.179V134.152L169.598 133.405V151.245C169.598 151.66 169.63 152.033 169.692 152.365C169.755 152.697 169.869 152.978 170.036 153.206C170.224 153.434 170.484 153.621 170.818 153.766C171.151 153.912 171.599 154.005 172.162 154.047L171.505 157.876Z" fill="white"/>
<path d="M179.177 157.565H174.519V141.189H179.177V157.565ZM179.615 136.456C179.615 137.307 179.333 137.982 178.771 138.48C178.229 138.957 177.583 139.196 176.832 139.196C176.082 139.196 175.426 138.957 174.863 138.48C174.321 137.982 174.05 137.307 174.05 136.456C174.05 135.605 174.321 134.941 174.863 134.464C175.426 133.966 176.082 133.717 176.832 133.717C177.583 133.717 178.229 133.966 178.771 134.464C179.333 134.941 179.615 135.605 179.615 136.456Z" fill="white"/>
<path d="M183.243 141.749C184.035 141.521 185.056 141.313 186.306 141.126C187.557 140.919 188.87 140.815 190.245 140.815C191.642 140.815 192.798 141.002 193.715 141.375C194.653 141.728 195.393 142.237 195.935 142.901C196.477 143.565 196.862 144.354 197.091 145.267C197.321 146.18 197.435 147.197 197.435 148.318V157.565H192.777V148.878C192.777 147.384 192.579 146.326 192.183 145.703C191.787 145.08 191.048 144.769 189.964 144.769C189.63 144.769 189.276 144.79 188.901 144.831C188.526 144.852 188.192 144.883 187.901 144.925V157.565H183.243V141.749Z" fill="white"/>
<path d="M200.557 149.501C200.557 148.048 200.776 146.782 201.214 145.703C201.672 144.603 202.266 143.69 202.996 142.963C203.725 142.237 204.559 141.687 205.496 141.313C206.455 140.939 207.435 140.753 208.435 140.753C210.769 140.753 212.613 141.469 213.968 142.901C215.323 144.312 216 146.398 216 149.159C216 149.428 215.99 149.729 215.969 150.062C215.948 150.373 215.927 150.653 215.906 150.902H205.34C205.444 151.857 205.892 152.614 206.684 153.175C207.476 153.735 208.539 154.015 209.873 154.015C210.727 154.015 211.561 153.943 212.374 153.797C213.207 153.631 213.885 153.434 214.406 153.206L215.031 156.973C214.781 157.098 214.447 157.222 214.031 157.347C213.614 157.471 213.145 157.575 212.624 157.658C212.124 157.762 211.582 157.845 210.998 157.907C210.415 157.969 209.831 158 209.248 158C207.768 158 206.476 157.783 205.371 157.347C204.288 156.911 203.381 156.319 202.652 155.572C201.943 154.804 201.412 153.901 201.057 152.863C200.724 151.826 200.557 150.705 200.557 149.501ZM211.498 147.727C211.478 147.332 211.405 146.948 211.28 146.575C211.175 146.201 210.998 145.869 210.748 145.578C210.519 145.288 210.217 145.049 209.842 144.862C209.487 144.675 209.039 144.582 208.497 144.582C207.976 144.582 207.528 144.675 207.153 144.862C206.778 145.028 206.465 145.257 206.215 145.547C205.965 145.838 205.767 146.18 205.621 146.575C205.496 146.948 205.403 147.332 205.34 147.727H211.498Z" fill="white"/>
<path d="M55.6895 154.233C56.5439 154.233 57.1483 154.15 57.5026 153.984C57.8569 153.818 58.034 153.496 58.034 153.019C58.034 152.645 57.8048 152.323 57.3463 152.053C56.8878 151.763 56.1897 151.441 55.2518 151.088C54.5224 150.819 53.8555 150.538 53.2511 150.248C52.6676 149.957 52.1674 149.615 51.7506 149.22C51.3338 148.805 51.0108 148.318 50.7815 147.757C50.5523 147.197 50.4377 146.522 50.4377 145.733C50.4377 144.198 51.0108 142.983 52.157 142.091C53.3032 141.198 54.8767 140.752 56.8774 140.752C57.8777 140.752 58.8364 140.846 59.7534 141.032C60.6704 141.198 61.3998 141.385 61.9417 141.593L61.1289 145.204C60.587 145.017 59.9931 144.851 59.347 144.706C58.7218 144.561 58.0132 144.488 57.2213 144.488C55.7624 144.488 55.033 144.893 55.033 145.702C55.033 145.889 55.0643 146.055 55.1268 146.2C55.1893 146.346 55.3143 146.491 55.5019 146.636C55.6895 146.761 55.9396 146.906 56.2522 147.072C56.5856 147.217 57.0024 147.384 57.5026 147.57C58.5238 147.944 59.3678 148.318 60.0347 148.691C60.7016 149.044 61.2227 149.438 61.5978 149.874C61.9938 150.289 62.2647 150.756 62.4106 151.275C62.5773 151.794 62.6607 152.396 62.6607 153.081C62.6607 154.7 62.0459 155.924 60.8163 156.755C59.6075 157.585 57.8882 158 55.6582 158C54.1994 158 52.9802 157.875 52.0007 157.626C51.042 157.377 50.3751 157.17 50 157.004L50.7815 153.237C51.5735 153.548 52.3862 153.797 53.2199 153.984C54.0535 154.15 54.8767 154.233 55.6895 154.233ZM52.032 135.055L53.7513 133L56.8774 135.397L60.0035 133L61.7853 135.055L56.8774 139.32L52.032 135.055Z" fill="white"/>
<path d="M70.4869 147.103C70.9453 146.605 71.4143 146.086 71.8936 145.547C72.3938 145.007 72.8731 144.478 73.3316 143.959C73.7901 143.419 74.2173 142.911 74.6133 142.433C75.0301 141.956 75.3844 141.541 75.6762 141.188H81.2093C80.1048 142.454 79.0211 143.668 77.9582 144.831C76.9162 145.972 75.7699 147.155 74.5195 148.38C75.1447 148.94 75.7908 149.615 76.4577 150.403C77.1246 151.171 77.7706 151.97 78.3959 152.801C79.0211 153.631 79.5942 154.461 80.1152 155.291C80.6362 156.122 81.0739 156.879 81.4282 157.564H76.0826C75.7491 157.024 75.3636 156.433 74.9259 155.789C74.5091 155.125 74.061 154.472 73.5817 153.828C73.1024 153.164 72.5918 152.531 72.0499 151.929C71.5289 151.327 71.0079 150.819 70.4869 150.403V157.564H65.829V134.152L70.4869 133.405V147.103Z" fill="white"/>
<path d="M97.8704 149.345C97.8704 150.632 97.6828 151.815 97.3077 152.894C96.9326 153.953 96.3907 154.866 95.6821 155.634C94.9736 156.381 94.1191 156.962 93.1187 157.377C92.1392 157.792 91.0347 158 89.8051 158C88.5963 158 87.4918 157.792 86.4914 157.377C85.5119 156.962 84.6679 156.381 83.9593 155.634C83.2507 154.866 82.6985 153.953 82.3025 152.894C81.9065 151.815 81.7085 150.632 81.7085 149.345C81.7085 148.058 81.9065 146.885 82.3025 145.827C82.7193 144.768 83.282 143.865 83.9906 143.118C84.72 142.371 85.5745 141.79 86.554 141.375C87.5543 140.96 88.638 140.752 89.8051 140.752C90.993 140.752 92.0767 140.96 93.0562 141.375C94.0566 141.79 94.911 142.371 95.6196 143.118C96.3282 143.865 96.8805 144.768 97.2764 145.827C97.6724 146.885 97.8704 148.058 97.8704 149.345ZM93.1187 149.345C93.1187 147.913 92.827 146.792 92.2434 145.983C91.6807 145.152 90.868 144.737 89.8051 144.737C88.7422 144.737 87.919 145.152 87.3355 145.983C86.7519 146.792 86.4602 147.913 86.4602 149.345C86.4602 150.777 86.7519 151.919 87.3355 152.77C87.919 153.6 88.7422 154.015 89.8051 154.015C90.868 154.015 91.6807 153.6 92.2434 152.77C92.827 151.919 93.1187 150.777 93.1187 149.345Z" fill="white"/>
<path d="M107.731 157.875C106.376 157.855 105.272 157.709 104.417 157.44C103.583 157.17 102.917 156.796 102.416 156.319C101.937 155.821 101.604 155.229 101.416 154.544C101.249 153.838 101.166 153.05 101.166 152.178V134.152L105.824 133.405V151.244C105.824 151.659 105.855 152.033 105.918 152.365C105.98 152.697 106.095 152.977 106.261 153.205C106.449 153.434 106.71 153.621 107.043 153.766C107.376 153.911 107.825 154.005 108.387 154.046L107.731 157.875Z" fill="white"/>
<path d="M117.486 154.326C117.944 154.326 118.382 154.316 118.799 154.295C119.216 154.274 119.549 154.243 119.799 154.202V150.684C119.612 150.642 119.33 150.601 118.955 150.559C118.58 150.518 118.236 150.497 117.924 150.497C117.486 150.497 117.069 150.528 116.673 150.59C116.298 150.632 115.964 150.725 115.673 150.87C115.381 151.016 115.152 151.213 114.985 151.462C114.818 151.711 114.735 152.022 114.735 152.396C114.735 153.122 114.975 153.631 115.454 153.921C115.954 154.191 116.631 154.326 117.486 154.326ZM117.111 140.752C118.486 140.752 119.632 140.908 120.549 141.219C121.466 141.53 122.196 141.977 122.738 142.558C123.3 143.139 123.696 143.845 123.926 144.675C124.155 145.505 124.269 146.429 124.269 147.446V157.097C123.603 157.242 122.675 157.408 121.487 157.595C120.299 157.803 118.861 157.907 117.173 157.907C116.11 157.907 115.141 157.813 114.266 157.626C113.412 157.44 112.672 157.139 112.046 156.723C111.421 156.288 110.942 155.727 110.608 155.042C110.275 154.357 110.108 153.517 110.108 152.52C110.108 151.566 110.296 150.756 110.671 150.092C111.067 149.428 111.588 148.899 112.234 148.504C112.88 148.11 113.62 147.83 114.454 147.664C115.287 147.477 116.152 147.384 117.048 147.384C117.653 147.384 118.184 147.415 118.643 147.477C119.122 147.518 119.507 147.581 119.799 147.664V147.228C119.799 146.439 119.559 145.806 119.08 145.329C118.601 144.851 117.767 144.613 116.579 144.613C115.787 144.613 115.006 144.675 114.235 144.799C113.464 144.903 112.797 145.059 112.234 145.266L111.64 141.53C111.911 141.447 112.244 141.364 112.64 141.281C113.057 141.178 113.505 141.095 113.985 141.032C114.464 140.949 114.964 140.887 115.485 140.846C116.027 140.783 116.569 140.752 117.111 140.752Z" fill="white"/>
<path fill-rule="evenodd" clip-rule="evenodd" d="M136.613 35.9427C134.39 34.6063 131.61 34.6063 129.387 35.9427L102.933 51.8459C100.827 53.1115 99.54 55.3863 99.54 57.8404V90.1605C99.54 92.6146 100.827 94.8893 102.933 96.155L129.387 112.058C131.61 113.395 134.39 113.395 136.613 112.058L163.067 96.155C165.173 94.8893 166.46 92.6146 166.46 90.1605V57.8404C166.46 55.3863 165.173 53.1115 163.067 51.8459L136.613 35.9427ZM129.71 80.0204H118.16L118.16 65.4734L133.186 56.5669L147.84 65.4464L147.84 84.2204C147.84 86.54 149.72 88.4204 152.04 88.4204C154.36 88.4204 156.24 86.54 156.24 84.2204V63.3959C156.24 61.7313 155.37 60.1876 153.947 59.325L135.674 48.2523C134.172 47.3422 132.291 47.3331 130.78 48.2285L112.093 59.3048C110.647 60.1619 109.76 61.7184 109.76 63.3995V83.6604C109.76 86.2893 111.891 88.4204 114.52 88.4204H129.71C132.03 88.4204 133.91 86.54 133.91 84.2204C133.91 81.9008 132.03 80.0204 129.71 80.0204Z" fill="white"/>
</g>
<defs>
<filter id="filter0_dd_2616_21837" x="0" y="0" width="266" height="226" filterUnits="userSpaceOnUse" color-interpolation-filters="sRGB">
<feFlood flood-opacity="0" result="BackgroundImageFix"/>
<feColorMatrix in="SourceAlpha" type="matrix" values="0 0 0 0 0 0 0 0 0 0 0 0 0 0 0 0 0 0 127 0" result="hardAlpha"/>
<feOffset dy="18"/>
<feGaussianBlur stdDeviation="25"/>
<feColorMatrix type="matrix" values="0 0 0 0 0 0 0 0 0 0.533333 0 0 0 0 0.533333 0 0 0 0.73 0"/>
<feBlend mode="normal" in2="BackgroundImageFix" result="effect1_dropShadow_2616_21837"/>
<feColorMatrix in="SourceAlpha" type="matrix" values="0 0 0 0 0 0 0 0 0 0 0 0 0 0 0 0 0 0 127 0" result="hardAlpha"/>
<feOffset dy="6"/>
<feGaussianBlur stdDeviation="7.5"/>
<feColorMatrix type="matrix" values="0 0 0 0 0 0 0 0 0 0.65 0 0 0 0 0.572 0 0 0 0.47 0"/>
<feBlend mode="normal" in2="effect1_dropShadow_2616_21837" result="effect2_dropShadow_2616_21837"/>
<feBlend mode="normal" in="SourceGraphic" in2="effect2_dropShadow_2616_21837" result="shape"/>
</filter>
</defs>
</svg>
